<svg id="visual" viewBox="0 0 300 470" width="300" height="470" xmlns="http://www.w3.org/2000/svg" xmlns:xlink="http://www.w3.org/1999/xlink" version="1.1"><rect x="0" y="0" width="300" height="470" fill="#FFFFFF"></rect><path d="M0 81L5.5 94.3C11 107.7 22 134.3 33.2 136.8C44.3 139.3 55.7 117.7 66.8 110C78 102.3 89 108.7 100 118.2C111 127.7 122 140.3 133.2 149.7C144.3 159 155.7 165 166.8 158.8C178 152.7 189 134.3 200 127.7C211 121 222 126 233.2 120.8C244.3 115.7 255.7 100.3 266.8 96.2C278 92 289 99 294.5 102.5L300 106L300 0L294.5 0C289 0 278 0 266.8 0C255.7 0 244.3 0 233.2 0C222 0 211 0 200 0C189 0 178 0 166.8 0C155.7 0 144.3 0 133.2 0C122 0 111 0 100 0C89 0 78 0 66.8 0C55.7 0 44.3 0 33.2 0C22 0 11 0 5.5 0L0 0Z" fill="#00ad8d"></path></svg>